# xmcd
#
# Track frame offsets:
#	150
#	14328
#	30977
#	46701
#	62561
#	79811
#	97964
#	118379
#	134054
#	148807
#	160751
#
# Disc length: 2471 seconds
#
# Revision: 1
# Processed by: cddbd v1.5.2PL0 Copyright (c) Steve Scherf et al.
# Submitted via: audiograbber 1.82.02
#
DISCID=8f09a50b
DTITLE=Red Dirt Skinners - Home Sweet Home
DYEAR=2012
DGENRE=Country
TTITLE0=Up All Night
TTITLE1=Panted On Smile
TTITLE2=Disgrace
TTITLE3=Wish I´d Stayed
TTITLE4=Mr. Jones
TTITLE5=Lay Me Down
TTITLE6=Black And White
TTITLE7=Pound Sign
TTITLE8=Keep On The Sunny Side
TTITLE9=The Neighbour´s Rooster
TTITLE10=Other Side of Town
EXTD=
EXTT0=
EXTT1=
EXTT2=
EXTT3=
EXTT4=
EXTT5=
EXTT6=
EXTT7=
EXTT8=
EXTT9=
EXTT10=
PLAYORDER=
